<?xml version="1.0" standalone="no"?>
<!DOCTYPE svg PUBLIC "-//W3C//DTD SVG 20010904//EN"
 "http://www.w3.org/TR/2001/REC-SVG-20010904/DTD/svg10.dtd">
<svg version="1.0" xmlns="http://www.w3.org/2000/svg"
 width="1280.000000pt" height="1280.000000pt" viewBox="0 0 1280.000000 1280.000000"
 preserveAspectRatio="xMidYMid meet">
<metadata>
Created by potrace 1.14, written by Peter Selinger 2001-2017
</metadata>
<g transform="translate(0.000000,1280.000000) scale(0.100000,-0.100000)"
fill="#000000" stroke="none">
<path d="M4170 12772 c-116 -74 -225 -237 -290 -431 -31 -93 -85 -332 -96
-429 -3 -31 -8 -59 -9 -62 -2 -3 -6 -50 -10 -105 -4 -55 -8 -111 -11 -125 -5
-28 -4 -611 0 -675 2 -22 6 -94 10 -160 9 -156 12 -193 31 -390 3 -27 7 -80
10 -116 3 -36 7 -74 9 -85 2 -10 7 -50 11 -89 4 -38 9 -81 11 -95 2 -14 6 -50
9 -80 5 -49 27 -188 39 -247 52 -255 183 -543 350 -773 119 -163 326 -365 469
-456 43 -27 46 -32 53 -84 11 -85 11 -93 3 -123 -6 -22 0 -46 28 -110 20 -45
46 -111 59 -147 l23 -65 -32 -35 c-18 -19 -58 -61 -89 -95 -109 -113 -227
-382 -299 -674 -73 -299 -71 -295 -154 -378 -82 -83 -96 -115 -90 -216 7 -105
48 -193 124 -264 20 -19 79 -59 131 -90 178 -105 232 -187 255 -393 28 -245
28 -238 -3 -254 -45 -23 -110 -101 -124 -148 -22 -72 -15 -190 17 -303 15 -55
34 -113 42 -128 31 -61 44 -183 59 -545 3 -79 7 -153 9 -165 2 -12 6 -56 10
-97 5 -66 21 -208 40 -350 4 -25 13 -83 21 -130 8 -47 19 -112 25 -144 5 -33
12 -62 14 -65 2 -4 6 -26 10 -49 9 -63 71 -285 107 -382 125 -343 196 -580
214 -715 3 -27 8 -59 11 -70 2 -11 6 -63 8 -116 l3 -96 -62 -104 c-177 -294
-212 -554 -102 -764 64 -123 222 -250 398 -320 l67 -27 16 -56 c20 -73 53
-152 71 -173 8 -8 14 -19 14 -23 0 -4 15 -28 32 -54 18 -26 48 -76 66 -112 98
-186 217 -305 361 -361 50 -20 75 -22 241 -23 165 0 191 3 244 22 175 64 355
229 459 423 48 87 68 164 71 272 l3 91 68 41 c227 134 416 424 432 662 5 70 2
91 -17 143 -27 71 -25 110 15 308 25 122 100 363 147 473 48 111 168 348 227
444 169 281 276 587 316 905 3 19 7 49 10 65 5 32 31 272 40 365 15 160 44
413 56 500 6 41 22 131 35 200 25 122 32 286 19 420 -9 90 -4 566 6 623 13 77
38 131 100 223 59 87 89 164 96 244 3 30 8 69 13 86 6 27 -1 53 -47 160 -65
154 -80 200 -132 409 -41 167 -77 285 -114 370 -52 120 -137 282 -161 304
l-25 23 21 57 c11 31 36 90 55 131 19 41 34 82 34 90 0 8 -2 38 -5 66 -8 103
2 125 111 237 185 191 339 440 438 707 15 41 31 84 36 95 44 110 110 437 134
675 4 36 9 73 10 82 2 9 6 48 10 85 3 37 8 79 10 93 3 14 7 59 10 100 3 41 8
95 10 120 8 80 14 172 21 285 3 61 7 133 10 160 5 62 5 592 0 660 -17 220 -20
248 -42 380 -29 172 -78 298 -165 427 -24 35 -59 92 -77 128 -68 130 -175 245
-275 295 -133 66 -204 16 -341 -240 -42 -79 -88 -160 -101 -180 -14 -20 -25
-38 -25 -41 0 -3 -29 -49 -64 -102 -61 -92 -110 -152 -126 -152 -4 0 -15 -21
-25 -47 -22 -58 -37 -85 -186 -333 -153 -256 -186 -322 -310 -632 -30 -76 -76
-365 -94 -593 -3 -38 -8 -83 -10 -100 -3 -16 -8 -52 -11 -80 -18 -161 -163
-675 -233 -830 -27 -59 -32 -65 -49 -56 -11 6 -29 26 -40 45 -11 19 -36 42
-54 52 -57 29 -119 85 -154 139 -41 66 -111 126 -189 166 l-60 30 -20 -25
c-11 -13 -45 -35 -76 -49 -31 -13 -59 -32 -63 -42 -3 -10 -1 -55 5 -100 16
-116 11 -128 -64 -165 -34 -17 -80 -45 -102 -64 l-39 -34 -44 62 c-74 106
-133 205 -138 233 -3 16 -14 35 -24 43 -21 16 -44 66 -67 144 -15 48 -34 94
-98 231 -53 114 -67 164 -71 265 -8 206 -45 416 -129 725 -62 230 -90 293
-251 577 -187 329 -579 948 -683 1078 -20 24 -41 51 -48 60 -7 8 -31 39 -54
68 -38 48 -45 53 -71 48 -21 -4 -37 0 -58 15 -46 35 -97 35 -150 1z m377
-3664 c11 -13 31 -43 43 -68 28 -56 70 -95 106 -98 39 -3 40 -8 5 -37 -37 -32
-38 -39 -6 -81 37 -48 33 -67 -24 -97 -26 -15 -51 -24 -54 -20 -4 3 -4 31 0
63 5 56 5 57 -42 110 -43 48 -47 56 -41 90 5 32 1 43 -24 75 -33 41 -36 55
-18 73 18 18 32 15 55 -10z m3733 -78 c21 -13 -1 -33 -40 -36 -37 -3 -48 13
-24 31 22 17 43 18 64 5z m-302 -55 c28 -61 -1 -115 -46 -86 -11 6 -9 16 8 49
12 23 19 46 15 52 -3 5 -2 10 3 10 5 0 14 -11 20 -25z m-104 -81 c-4 -71 -23
-156 -48 -216 -29 -69 -31 -50 -11 112 7 53 44 170 54 170 5 0 8 -30 5 -66z
m-2889 36 c6 -10 -64 -50 -87 -50 -18 1 49 60 67 60 7 0 16 -4 20 -10z m3369
0 c24 -9 35 -38 20 -52 -6 -7 -113 38 -128 53 -13 12 75 12 108 -1z m-384
-145 c0 -26 -6 -58 -14 -74 -26 -49 -105 -66 -90 -19 9 28 85 138 95 138 5 0
9 -20 9 -45z m333 -35 c68 -68 86 -80 114 -80 37 0 40 -6 17 -31 -18 -20 -38
-16 -71 14 -14 13 -38 20 -69 21 -40 1 -51 6 -75 36 -29 34 -46 90 -34 109 14
23 41 8 118 -69z m110 8 c4 -14 1 -18 -11 -16 -18 3 -53 67 -45 81 6 10 50
-40 56 -65z m-3283 -105 c0 -29 -40 -89 -50 -74 -14 24 16 91 42 91 4 0 8 -8
8 -17z m2652 -2381 c1 -19 1 -50 -1 -70 -2 -19 -19 -5 -37 30 -9 17 -13 40
-10 54 6 21 9 23 26 14 11 -6 21 -18 22 -28z m-352 -339 c32 -42 15 -79 -23
-50 -24 17 -34 77 -13 77 8 0 24 -12 36 -27z m350 -159 c0 -3 -4 -13 -9 -22
-12 -24 5 -62 27 -62 11 0 36 14 57 30 40 32 50 35 59 21 8 -12 -49 -60 -99
-82 -96 -44 -167 -1 -119 71 10 14 24 31 32 38 16 12 52 17 52 6z m-1785
-2105 c25 -21 34 -22 163 -15 76 3 146 8 157 10 54 10 200 17 237 11 36 -6 56
-22 135 -101 71 -71 101 -95 128 -100 31 -5 34 -9 29 -31 -5 -20 -1 -30 22
-49 l29 -24 -32 -29 c-18 -17 -29 -33 -24 -35 5 -3 44 -8 87 -12 84 -6 108
-16 99 -45 -4 -10 2 -22 13 -31 37 -26 54 -93 57 -228 2 -105 -9 -134 -64
-162 -42 -22 -46 -27 -48 -64 0 -21 -17 -84 -37 -138 -20 -54 -35 -106 -34
-115 2 -9 26 -50 54 -92 28 -42 54 -93 58 -113 8 -40 18 -45 38 -18 7 10 30
31 52 47 36 27 38 28 32 8 -6 -17 2 -32 35 -67 34 -37 38 -47 25 -52 -15 -6
-56 15 -85 43 -12 13 -37 11 -68 -6 -8 -4 2 -28 33 -76 32 -51 44 -80 44 -108
0 -34 -3 -38 -31 -44 -61 -12 -47 -57 18 -55 55 2 69 -5 93 -45 19 -33 23 -35
57 -28 l36 6 -33 -40 c-36 -47 -65 -66 -75 -51 -3 5 -4 14 -1 18 8 13 -7 27
-60 56 -47 26 -136 100 -164 138 -11 16 -9 17 26 15 29 -1 39 2 42 15 4 22
-30 36 -106 43 -72 7 -109 21 -115 46 -4 15 -14 19 -46 19 -54 0 -81 26 -81
79 0 46 -11 56 -58 53 -52 -4 -92 -29 -108 -68 -14 -34 -16 -35 -59 -28 -25 3
-45 2 -45 -2 0 -5 14 -36 30 -69 34 -67 40 -96 11 -50 -32 50 -90 105 -112
105 -11 0 -32 -9 -46 -20 -33 -26 -46 -25 -92 6 -28 18 -46 23 -65 18 -15 -4
-26 -2 -26 4 0 19 -30 40 -49 35 -30 -8 -44 -30 -43 -66 1 -40 -11 -47 -57
-35 -62 17 -71 36 -56 112 l8 40 -28 -28 c-28 -28 -52 -31 -99 -11 -15 7 -17
5 -13 -11 18 -59 19 -74 5 -74 -24 0 -108 61 -122 89 -16 30 -51 62 -120 109
-52 35 -64 32 -61 -16 1 -24 5 -27 33 -26 37 2 40 -6 12 -31 -11 -10 -28 -15
-40 -12 -28 7 -76 -34 -90 -78 -6 -18 -8 -50 -5 -69 6 -27 2 -42 -15 -66 -15
-21 -21 -41 -18 -64 4 -33 3 -33 -19 -17 -57 42 -64 129 -16 203 68 106 132
352 139 533 15 393 13 379 62 371 46 -7 68 6 82 48 15 46 -2 107 -38 141 -15
14 -30 25 -34 25 -5 0 -8 6 -8 14 0 8 17 20 38 27 69 22 92 40 92 74 0 102 70
207 146 218 24 4 44 14 48 22 14 37 100 46 141 14z m1076 -907 c-14 -26 -40
-52 -51 -52 -11 0 8 48 29 73 19 23 37 6 22 -21z m324 -424 c-24 -35 -107
-118 -118 -118 -5 0 3 17 19 37 53 69 142 141 99 81z m-169 -186 c17 -35 25
-39 78 -46 66 -7 77 -20 36 -41 -23 -12 -46 -15 -73 -12 -62 8 -94 50 -88 115
2 21 34 9 47 -16z m-556 -87 c0 -28 -31 -15 -46 20 -7 19 -14 40 -14 47 1 18
60 -49 60 -67z m-1000 25 c0 -5 -12 -18 -26 -29 -20 -16 -30 -18 -40 -10 -13
11 -11 20 8 45 9 12 58 7 58 -6z m279 -32 c4 -12 6 -30 3 -40 -4 -16 -7 -16
-31 -3 -53 29 -56 32 -42 49 20 24 60 20 70 -6z m445 -30 c17 -66 -4 -88 -34
-36 -12 22 -12 29 -1 42 18 22 28 20 35 -6z m-833 -19 c29 -15 6 -39 -37 -39
-39 0 -43 12 -12 34 27 19 24 19 49 5z m-308 -104 c-3 -9 -8 -14 -10 -11 -3 3
-2 9 2 15 9 16 15 13 8 -4z m2124 -92 c10 -27 20 -70 22 -98 1 -27 9 -65 17
-83 17 -37 11 -54 -11 -31 -30 30 -85 236 -67 253 12 13 20 4 39 -41z m-2198
-105 c16 -43 -11 -110 -38 -94 -14 9 -14 71 -1 97 14 25 29 24 39 -3z"/>
</g>
</svg>
